<svg xmlns="http://www.w3.org/2000/svg" viewBox="0 0 800 800">
<rect width="800" height="800" rx="24" fill="#efe4d3"/>
<ellipse cx="400" cy="700" rx="260" ry="28" fill="#d8c9b5"/>
<path d="M260 220 L340 150 Q400 130 460 150 L540 220 L625 300 L555 405 L505 355 L505 650 Q400 690 295 650 L295 355 L245 405 L175 300 Z" fill="#67121b" stroke="#2d2220" stroke-width="8"/>
<path d="M340 150 Q400 205 460 150" fill="none" stroke="#eadbc6" stroke-width="22"/>
<path d="M400 205 L400 650" stroke="#d6bca5" stroke-width="8"/>
<path d="M245 405 L295 355 M555 355 L505 405" stroke="#eadbc6" stroke-width="8"/>
<text x="400" y="405" text-anchor="middle" font-family="Georgia,serif" font-size="44" font-weight="700" fill="#f4eadb">OBSESSED</text>
<text x="400" y="450" text-anchor="middle" font-family="Arial,sans-serif" font-size="18" letter-spacing="4" fill="#f4eadb">UNAPOLOGETICALLY ICONIC</text>
<circle cx="400" cy="305" r="34" fill="none" stroke="#eadbc6" stroke-width="5"/>
<text x="400" y="318" text-anchor="middle" font-family="Georgia,serif" font-size="32" fill="#eadbc6">OZ</text>
<text x="400" y="748" text-anchor="middle" font-family="Arial,sans-serif" font-size="15" letter-spacing="3" fill="#5b0d16">FOUNDERS VARSITY JACKET</text>
</svg>